<svg xmlns="http://www.w3.org/2000/svg" width="1080" height="652" viewBox="0 0 1080 652" role="img">
<title>分平台模型的技能系数</title>
<rect width="100%" height="100%" fill="#ffffff"/>
<text x="42" y="48" font-family="Microsoft YaHei, PingFang SC, sans-serif" font-size="24" font-weight="700" fill="#0f172a">分平台模型的技能系数</text>
<text x="42" y="78" font-family="Microsoft YaHei, PingFang SC, sans-serif" font-size="14" fill="#64748b">点为估计值，横线为95%置信区间</text>
<line x1="631.08" y1="110" x2="631.08" y2="610" stroke="#64748b" stroke-width="1.5"/>
<text x="268" y="131" text-anchor="end" font-family="Microsoft YaHei, PingFang SC, sans-serif" font-size="12" fill="#334155">BOSS直聘 · 技能：财务分析</text>
<line x1="280.00" y1="127" x2="633.00" y2="127" stroke="#1e40af" stroke-width="2"/>
<circle cx="446.27" cy="127" r="4.5" fill="#1e40af"/>
<text x="268" y="162" text-anchor="end" font-family="Microsoft YaHei, PingFang SC, sans-serif" font-size="12" fill="#334155">BOSS直聘 · 技能：运营管理</text>
<line x1="540.68" y1="158" x2="975.00" y2="158" stroke="#1e40af" stroke-width="2"/>
<circle cx="744.90" cy="158" r="4.5" fill="#1e40af"/>
<text x="268" y="193" text-anchor="end" font-family="Microsoft YaHei, PingFang SC, sans-serif" font-size="12" fill="#334155">BOSS直聘 · 技能：产品管理</text>
<line x1="304.40" y1="189" x2="545.02" y2="189" stroke="#1e40af" stroke-width="2"/>
<circle cx="419.86" cy="189" r="4.5" fill="#1e40af"/>
<text x="268" y="224" text-anchor="end" font-family="Microsoft YaHei, PingFang SC, sans-serif" font-size="12" fill="#334155">BOSS直聘 · 技能：SQL</text>
<line x1="284.58" y1="220" x2="761.00" y2="220" stroke="#1e40af" stroke-width="2"/>
<circle cx="504.89" cy="220" r="4.5" fill="#1e40af"/>
<text x="268" y="255" text-anchor="end" font-family="Microsoft YaHei, PingFang SC, sans-serif" font-size="12" fill="#334155">BOSS直聘 · 技能：项目管理</text>
<line x1="379.49" y1="251" x2="732.65" y2="251" stroke="#1e40af" stroke-width="2"/>
<circle cx="546.46" cy="251" r="4.5" fill="#1e40af"/>
<text x="268" y="286" text-anchor="end" font-family="Microsoft YaHei, PingFang SC, sans-serif" font-size="12" fill="#334155">前程无忧 · 技能：财务分析</text>
<line x1="574.63" y1="282" x2="920.55" y2="282" stroke="#0f766e" stroke-width="2"/>
<circle cx="739.35" cy="282" r="4.5" fill="#0f766e"/>
<text x="268" y="317" text-anchor="end" font-family="Microsoft YaHei, PingFang SC, sans-serif" font-size="12" fill="#334155">前程无忧 · 技能：运营管理</text>
<line x1="631.99" y1="313" x2="868.19" y2="313" stroke="#0f766e" stroke-width="2"/>
<circle cx="746.26" cy="313" r="4.5" fill="#0f766e"/>
<text x="268" y="348" text-anchor="end" font-family="Microsoft YaHei, PingFang SC, sans-serif" font-size="12" fill="#334155">前程无忧 · 技能：产品管理</text>
<line x1="515.02" y1="344" x2="733.88" y2="344" stroke="#0f766e" stroke-width="2"/>
<circle cx="620.91" cy="344" r="4.5" fill="#0f766e"/>
<text x="268" y="379" text-anchor="end" font-family="Microsoft YaHei, PingFang SC, sans-serif" font-size="12" fill="#334155">前程无忧 · 技能：SQL</text>
<line x1="755.88" y1="375" x2="968.58" y2="375" stroke="#0f766e" stroke-width="2"/>
<circle cx="859.31" cy="375" r="4.5" fill="#0f766e"/>
<text x="268" y="410" text-anchor="end" font-family="Microsoft YaHei, PingFang SC, sans-serif" font-size="12" fill="#334155">前程无忧 · 技能：项目管理</text>
<line x1="675.22" y1="406" x2="927.38" y2="406" stroke="#0f766e" stroke-width="2"/>
<circle cx="797.05" cy="406" r="4.5" fill="#0f766e"/>
<text x="268" y="441" text-anchor="end" font-family="Microsoft YaHei, PingFang SC, sans-serif" font-size="12" fill="#334155">智联招聘 · 技能：财务分析</text>
<line x1="419.03" y1="437" x2="505.87" y2="437" stroke="#7c3aed" stroke-width="2"/>
<circle cx="461.84" cy="437" r="4.5" fill="#7c3aed"/>
<text x="268" y="472" text-anchor="end" font-family="Microsoft YaHei, PingFang SC, sans-serif" font-size="12" fill="#334155">智联招聘 · 技能：运营管理</text>
<line x1="580.64" y1="468" x2="719.19" y2="468" stroke="#7c3aed" stroke-width="2"/>
<circle cx="648.52" cy="468" r="4.5" fill="#7c3aed"/>
<text x="268" y="503" text-anchor="end" font-family="Microsoft YaHei, PingFang SC, sans-serif" font-size="12" fill="#334155">智联招聘 · 技能：产品管理</text>
<line x1="631.06" y1="499" x2="764.34" y2="499" stroke="#7c3aed" stroke-width="2"/>
<circle cx="696.44" cy="499" r="4.5" fill="#7c3aed"/>
<text x="268" y="534" text-anchor="end" font-family="Microsoft YaHei, PingFang SC, sans-serif" font-size="12" fill="#334155">智联招聘 · 技能：SQL</text>
<line x1="507.84" y1="530" x2="663.28" y2="530" stroke="#7c3aed" stroke-width="2"/>
<circle cx="583.74" cy="530" r="4.5" fill="#7c3aed"/>
<text x="268" y="565" text-anchor="end" font-family="Microsoft YaHei, PingFang SC, sans-serif" font-size="12" fill="#334155">智联招聘 · 技能：项目管理</text>
<line x1="647.05" y1="561" x2="807.90" y2="561" stroke="#7c3aed" stroke-width="2"/>
<circle cx="725.68" cy="561" r="4.5" fill="#7c3aed"/>
</svg>
