<svg xmlns="http://www.w3.org/2000/svg" width="1020" height="899" viewBox="0 0 1020 899" role="img">
<title>主模型与截尾模型系数比较</title>
<rect width="100%" height="100%" fill="#ffffff"/>
<text x="42" y="48" font-family="Microsoft YaHei, PingFang SC, sans-serif" font-size="24" font-weight="700" fill="#0f172a">主模型与截尾模型系数比较</text>
<text x="42" y="78" font-family="Microsoft YaHei, PingFang SC, sans-serif" font-size="14" fill="#64748b">截尾模型用于查看极端薪资对估计结果的影响</text>
<rect x="230" y="96" width="12" height="12" rx="2" fill="#1e40af"/>
<text x="248" y="107" font-family="Microsoft YaHei, PingFang SC, sans-serif" font-size="12" fill="#475569">全部可解析薪资</text>
<rect x="420" y="96" width="12" height="12" rx="2" fill="#0f766e"/>
<text x="438" y="107" font-family="Microsoft YaHei, PingFang SC, sans-serif" font-size="12" fill="#475569">1%/99%截尾</text>
<line x1="623.13" y1="122" x2="623.13" y2="857" stroke="#94a3b8"/>
<text x="218" y="148" text-anchor="end" font-family="Microsoft YaHei, PingFang SC, sans-serif" font-size="13" fill="#334155">岗位：产品</text>
<rect x="623.13" y="134" width="256.62" height="12" rx="2" fill="#1e40af" opacity=".88"/>
<text x="885.75" y="145" text-anchor="start" font-family="Microsoft YaHei, PingFang SC, sans-serif" font-size="10" fill="#475569">+6.6%</text>
<rect x="623.13" y="152" width="281.87" height="12" rx="2" fill="#0f766e" opacity=".88"/>
<text x="911.00" y="163" text-anchor="start" font-family="Microsoft YaHei, PingFang SC, sans-serif" font-size="10" fill="#475569">+7.2%</text>
<text x="218" y="212" text-anchor="end" font-family="Microsoft YaHei, PingFang SC, sans-serif" font-size="13" fill="#334155">岗位：运营</text>
<rect x="230.00" y="198" width="393.13" height="12" rx="2" fill="#1e40af" opacity=".88"/>
<text x="224.00" y="209" text-anchor="end" font-family="Microsoft YaHei, PingFang SC, sans-serif" font-size="10" fill="#475569">-10.1%</text>
<rect x="240.17" y="216" width="382.96" height="12" rx="2" fill="#0f766e" opacity=".88"/>
<text x="234.17" y="227" text-anchor="end" font-family="Microsoft YaHei, PingFang SC, sans-serif" font-size="10" fill="#475569">-9.8%</text>
<text x="218" y="276" text-anchor="end" font-family="Microsoft YaHei, PingFang SC, sans-serif" font-size="13" fill="#334155">岗位：数据</text>
<rect x="405.15" y="262" width="217.98" height="12" rx="2" fill="#1e40af" opacity=".88"/>
<text x="399.15" y="273" text-anchor="end" font-family="Microsoft YaHei, PingFang SC, sans-serif" font-size="10" fill="#475569">-5.6%</text>
<rect x="425.13" y="280" width="198.00" height="12" rx="2" fill="#0f766e" opacity=".88"/>
<text x="419.13" y="291" text-anchor="end" font-family="Microsoft YaHei, PingFang SC, sans-serif" font-size="10" fill="#475569">-5.1%</text>
<text x="218" y="340" text-anchor="end" font-family="Microsoft YaHei, PingFang SC, sans-serif" font-size="13" fill="#334155">岗位：商业分析</text>
<rect x="528.53" y="326" width="94.60" height="12" rx="2" fill="#1e40af" opacity=".88"/>
<text x="522.53" y="337" text-anchor="end" font-family="Microsoft YaHei, PingFang SC, sans-serif" font-size="10" fill="#475569">-2.4%</text>
<rect x="561.99" y="344" width="61.14" height="12" rx="2" fill="#0f766e" opacity=".88"/>
<text x="555.99" y="355" text-anchor="end" font-family="Microsoft YaHei, PingFang SC, sans-serif" font-size="10" fill="#475569">-1.6%</text>
<text x="218" y="404" text-anchor="end" font-family="Microsoft YaHei, PingFang SC, sans-serif" font-size="13" fill="#334155">岗位：其他</text>
<rect x="623.13" y="390" width="181.10" height="12" rx="2" fill="#1e40af" opacity=".88"/>
<text x="810.23" y="401" text-anchor="start" font-family="Microsoft YaHei, PingFang SC, sans-serif" font-size="10" fill="#475569">+4.7%</text>
<rect x="623.13" y="408" width="257.37" height="12" rx="2" fill="#0f766e" opacity=".88"/>
<text x="886.50" y="419" text-anchor="start" font-family="Microsoft YaHei, PingFang SC, sans-serif" font-size="10" fill="#475569">+6.6%</text>
<text x="218" y="468" text-anchor="end" font-family="Microsoft YaHei, PingFang SC, sans-serif" font-size="13" fill="#334155">技能：财务分析</text>
<rect x="256.14" y="454" width="366.99" height="12" rx="2" fill="#1e40af" opacity=".88"/>
<text x="250.14" y="465" text-anchor="end" font-family="Microsoft YaHei, PingFang SC, sans-serif" font-size="10" fill="#475569">-9.4%</text>
<rect x="333.52" y="472" width="289.61" height="12" rx="2" fill="#0f766e" opacity=".88"/>
<text x="327.52" y="483" text-anchor="end" font-family="Microsoft YaHei, PingFang SC, sans-serif" font-size="10" fill="#475569">-7.4%</text>
<text x="218" y="532" text-anchor="end" font-family="Microsoft YaHei, PingFang SC, sans-serif" font-size="13" fill="#334155">技能：运营管理</text>
<rect x="623.13" y="518" width="117.56" height="12" rx="2" fill="#1e40af" opacity=".88"/>
<text x="746.69" y="529" text-anchor="start" font-family="Microsoft YaHei, PingFang SC, sans-serif" font-size="10" fill="#475569">+3.0%</text>
<rect x="623.13" y="536" width="100.03" height="12" rx="2" fill="#0f766e" opacity=".88"/>
<text x="729.16" y="547" text-anchor="start" font-family="Microsoft YaHei, PingFang SC, sans-serif" font-size="10" fill="#475569">+2.6%</text>
<text x="218" y="596" text-anchor="end" font-family="Microsoft YaHei, PingFang SC, sans-serif" font-size="13" fill="#334155">技能：产品管理</text>
<rect x="548.70" y="582" width="74.43" height="12" rx="2" fill="#1e40af" opacity=".88"/>
<text x="542.70" y="593" text-anchor="end" font-family="Microsoft YaHei, PingFang SC, sans-serif" font-size="10" fill="#475569">-1.9%</text>
<rect x="566.25" y="600" width="56.88" height="12" rx="2" fill="#0f766e" opacity=".88"/>
<text x="560.25" y="611" text-anchor="end" font-family="Microsoft YaHei, PingFang SC, sans-serif" font-size="10" fill="#475569">-1.5%</text>
<text x="218" y="660" text-anchor="end" font-family="Microsoft YaHei, PingFang SC, sans-serif" font-size="13" fill="#334155">技能：SQL</text>
<rect x="623.13" y="646" width="145.63" height="12" rx="2" fill="#1e40af" opacity=".88"/>
<text x="774.76" y="657" text-anchor="start" font-family="Microsoft YaHei, PingFang SC, sans-serif" font-size="10" fill="#475569">+3.7%</text>
<rect x="623.13" y="664" width="163.28" height="12" rx="2" fill="#0f766e" opacity=".88"/>
<text x="792.41" y="675" text-anchor="start" font-family="Microsoft YaHei, PingFang SC, sans-serif" font-size="10" fill="#475569">+4.2%</text>
<text x="218" y="724" text-anchor="end" font-family="Microsoft YaHei, PingFang SC, sans-serif" font-size="13" fill="#334155">技能：项目管理</text>
<rect x="623.13" y="710" width="207.18" height="12" rx="2" fill="#1e40af" opacity=".88"/>
<text x="836.31" y="721" text-anchor="start" font-family="Microsoft YaHei, PingFang SC, sans-serif" font-size="10" fill="#475569">+5.3%</text>
<rect x="623.13" y="728" width="200.51" height="12" rx="2" fill="#0f766e" opacity=".88"/>
<text x="829.64" y="739" text-anchor="start" font-family="Microsoft YaHei, PingFang SC, sans-serif" font-size="10" fill="#475569">+5.2%</text>
<text x="218" y="788" text-anchor="end" font-family="Microsoft YaHei, PingFang SC, sans-serif" font-size="13" fill="#334155">技能：Python</text>
<rect x="623.13" y="774" width="159.51" height="12" rx="2" fill="#1e40af" opacity=".88"/>
<text x="788.64" y="785" text-anchor="start" font-family="Microsoft YaHei, PingFang SC, sans-serif" font-size="10" fill="#475569">+4.1%</text>
<rect x="623.13" y="792" width="156.92" height="12" rx="2" fill="#0f766e" opacity=".88"/>
<text x="786.05" y="803" text-anchor="start" font-family="Microsoft YaHei, PingFang SC, sans-serif" font-size="10" fill="#475569">+4.0%</text>
</svg>
